<svg xmlns="http://www.w3.org/2000/svg" width="1600" height="1800" viewBox="0 0 1600 1800" role="img" aria-label="Nido">
  <defs>
    <linearGradient id="g" x1="0" x2="1" y1="0" y2="1">
      <stop offset="0%" stop-color="#f3efe8" />
      <stop offset="100%" stop-color="#e6ddd3" />
    </linearGradient>
    <radialGradient id="r" cx="30%" cy="25%" r="60%">
      <stop offset="0%" stop-color="#ffffff" stop-opacity="0.75" />
      <stop offset="100%" stop-color="#ffffff" stop-opacity="0" />
    </radialGradient>
  </defs>
  <rect width="1600" height="1800" rx="64" fill="url(#g)" />
  <circle cx="470" cy="510" r="360" fill="url(#r)" />
  <path d="M1040 1250c0 190-88 290-140 350 18-114-11-201-95-290-102-109-223-172-299-405-31-93-48-217-35-372 55 160 157 272 300 366 144 93 269 214 269 351Z" fill="none" stroke="#cfc3b8" stroke-width="20" stroke-linecap="round"/>
  <path d="M665 915c52-81 116-118 179-147-17 74-56 130-143 170" fill="none" stroke="#cfc3b8" stroke-width="16" stroke-linecap="round"/>
  <path d="M600 800c-5-76 7-124 36-175 39 58 47 112 27 184" fill="none" stroke="#cfc3b8" stroke-width="16" stroke-linecap="round"/>
  <path d="M770 955c58-17 109-13 161 17-52 37-102 46-170 23" fill="none" stroke="#cfc3b8" stroke-width="16" stroke-linecap="round"/>
  <text x="130" y="150" fill="#5b534b" font-family="Inter, Arial, sans-serif" font-size="42" letter-spacing="10">MATRIA</text>
  <text x="130" y="1240" fill="#2b241f" font-family="'Cormorant Garamond', Georgia, serif" font-size="138" font-weight="600">Nido</text>
  <text x="130" y="1316" fill="#6b6259" font-family="Inter, Arial, sans-serif" font-size="34">COVER</text>
</svg>