<svg xmlns="http://www.w3.org/2000/svg" width="1200" height="1400" viewBox="0 0 1200 1400" role="img" aria-label="Velo de Seda">
  <defs>
    <linearGradient id="g" x1="0" y1="0" x2="1" y2="1">
      <stop offset="0%" stop-color="#f7f1ec"/>
      <stop offset="100%" stop-color="#e6dbd1"/>
    </linearGradient>
  </defs>
  <rect width="1200" height="1400" fill="url(#g)"/>
  <circle cx="930" cy="260" r="160" fill="rgba(255,255,255,0.28)"/>
  <circle cx="260" cy="1030" r="210" fill="rgba(255,255,255,0.18)"/>
  <rect x="120" y="140" width="360" height="2" rx="1" fill="#3a312a" opacity="0.55"/>
  <text x="120" y="110" font-family="Inter, Arial, sans-serif" font-size="34" letter-spacing="8" fill="#2b241f">MATRIA</text>
  <text x="120" y="720" font-family="Georgia, 'Times New Roman', serif" font-size="126" fill="#241f1a">Velo de Seda</text>
  <text x="120" y="790" font-family="Inter, Arial, sans-serif" font-size="34" fill="#4d433b">Sachet · NIDO</text>
  <path d="M760 930c75-120 120-245 135-376 92 72 142 163 142 274 0 168-119 303-299 303s-299-135-299-303c0-110 50-202 141-274 18 134 59 258 127 376 24-36 53-68 87-96 30 27 54 60 66 96Z" fill="#c7a79d" opacity="0.14"/>
</svg>